<svg width="368" height="368" viewBox="0 0 368 368" fill="none" xmlns="http://www.w3.org/2000/svg">
<path d="M283.455 329.825H68.9201C66.8604 329.825 64.8209 329.419 62.9181 328.631C61.0152 327.843 59.2861 326.688 57.8297 325.232C56.3733 323.775 55.218 322.046 54.4298 320.144C53.6415 318.241 53.2358 316.201 53.2358 314.142V174.447C53.2359 170.438 54.7708 166.582 57.5252 163.67C60.2796 160.758 64.0445 159.011 68.0467 158.788L290.859 146.37C300.188 145.849 307.899 153.551 307.389 162.88L299.112 314.993C298.894 318.998 297.15 322.768 294.237 325.527C291.325 328.286 287.466 329.824 283.455 329.825Z" fill="#FA541C"/>
<path opacity="0.48" d="M181.199 245.531L298.47 147.865C296.101 146.733 293.484 146.219 290.862 146.37L68.0499 158.788C64.3591 158.991 60.8594 160.495 58.1724 163.033L145.939 244.658C155.467 253.519 171.141 253.906 181.199 245.531Z" fill="#B3200E"/>
<path d="M164.893 240.691C158.884 240.686 153.086 238.478 148.594 234.487L115.533 205.293C115.077 204.879 114.802 204.303 114.768 203.688C114.734 203.073 114.944 202.469 115.351 202.008C115.759 201.546 116.331 201.263 116.946 201.22C117.56 201.177 118.166 201.378 118.634 201.779L151.704 230.974C155.085 233.982 159.393 235.745 163.913 235.971C168.433 236.197 172.895 234.873 176.56 232.217L193.696 219.901C196.203 218.148 198.918 221.861 196.431 223.708C188.316 228.844 175.24 241.738 164.893 240.691Z" fill="#FDAB76"/>
<path d="M104.774 195.019C103.417 195.275 99.783 191.154 98.7715 190.502C96.4979 188.426 99.5289 184.987 101.874 186.988L106.326 190.918C107.958 192.259 106.847 195.096 104.774 195.019Z" fill="#FDAB76"/>
<path d="M137.113 99.8964L128.164 147.818L156.068 123.285L137.113 99.8964Z" fill="#FDAB76"/>
<path d="M340.211 114.348L146.268 123.761C145.087 123.818 143.907 123.635 142.8 123.223C141.692 122.811 140.68 122.178 139.824 121.363C138.968 120.547 138.287 119.567 137.821 118.481C137.356 117.394 137.115 116.225 137.115 115.043V35.2537C137.115 31.0821 138.739 27.0743 141.643 24.0794C144.547 21.0845 148.503 19.3378 152.673 19.2092L327.47 13.7998C340.482 13.7998 351.032 24.3522 351.032 37.3681V102.99C351.031 105.911 349.907 108.719 347.893 110.833C345.878 112.948 343.128 114.206 340.211 114.348Z" fill="#FDAB76"/>
<path d="M152.067 120.341C145.765 120.465 140.165 114.887 140.308 108.564V36.6514C140.308 28.2936 147.012 21.5445 155.571 21.2854L324.808 16.1758C337.514 16.1758 347.84 26.2569 347.84 38.6486V100.647C347.84 106.498 343.152 111.302 337.165 111.586C336.588 111.602 152.599 120.356 152.067 120.341ZM324.814 16.5853L155.582 21.695C147.247 21.9417 140.719 28.5157 140.719 36.6501V108.564C140.72 110.101 141.032 111.623 141.638 113.036C142.244 114.45 143.13 115.725 144.242 116.786C145.355 117.847 146.672 118.671 148.112 119.209C149.553 119.746 151.088 119.986 152.624 119.913L337.146 111.174C342.911 110.902 347.429 106.277 347.429 100.645V38.6486C347.429 26.4839 337.285 16.5853 324.814 16.5853Z" fill="#FEE9D1"/>
<path d="M167.857 52.496C168.608 52.5539 169.036 52.9894 169.531 53.5667L191.145 79.1532C190.712 77.5409 190.116 53.9553 189.965 51.6596L196.418 51.4264L197.835 90.7986C196.799 90.748 193.49 91.1822 192.597 90.7147C192.21 90.5469 191.825 90.2336 191.446 89.7747L169.917 64.2955C170.272 65.4872 170.946 89.8006 171.069 91.762L164.616 91.9952L163.199 52.623C163.802 52.6156 167.347 52.4343 167.857 52.496Z" fill="#FEE9D1"/>
<path d="M229.2 50.2471L229.409 56.0735L211.956 56.7014L212.35 67.6201L226.1 67.1267L226.303 72.7631L212.552 73.2565L212.953 84.3924L230.406 83.7645L230.617 89.618L205.785 90.5124L204.368 51.1415L229.2 50.2471Z" fill="#FEE9D1"/>
<path d="M231.895 50.1496C233.139 50.3088 238.667 49.4625 239.657 50.3199C240.087 50.5952 240.406 51.0132 240.558 51.5004C241.38 54.3217 248.904 76.4553 249.095 78.8386C249.194 76.5601 256.164 53.6728 256.867 50.9132C257.439 48.9518 259.728 49.122 261.381 49.0887C262.561 49.032 263.5 49.5896 263.891 50.6604C264.772 53.2769 273.266 75.6374 273.592 77.7654C273.592 75.7127 279.555 52.6551 280.119 50.0769C280.244 49.5975 280.526 49.1741 280.921 48.8753C281.813 47.8884 287.036 48.3461 288.228 48.1216L277.42 87.9329L270.804 88.1722L261.231 61.5803C261.108 61.2399 260.985 60.871 260.85 60.4762C260.716 60.0815 260.59 59.6584 260.464 59.2081C260.429 60.0716 252.524 87.3346 252.153 88.8433L245.536 89.0814L231.895 50.1496Z" fill="#FEE9D1"/>
<path d="M313.89 54.3686C312.328 57.6883 309.013 52.5071 304.268 53.0782C301.888 53.1522 299.537 54.0059 298.656 56.2388C298.148 57.5563 298.204 59.5004 299.206 60.5404C301.303 62.7498 304.778 63.1088 307.65 64.0932C311.042 65.1208 314.583 66.6036 316.178 70.0146C318.067 74.1472 317.078 80.0353 313.849 83.3377C307.966 89.4453 296.735 88.3313 290.781 82.7097C294.563 75.1267 294.298 78.8016 300.384 80.9827C302.728 81.824 307.037 81.5033 308.695 79.7565C310.348 78.3884 310.908 74.7295 309.391 72.9284C306.414 69.8345 301.343 70.149 297.595 68.2554C292.339 66.2816 290.234 59.8668 292.212 54.6536C295.594 45.6716 309.047 45.0461 315.562 50.8417L313.89 54.3686Z" fill="#FEE9D1"/>
<path d="M74.2471 206.368C74.1398 206.571 67.3599 211.56 67.3599 211.56C69.1807 224.83 78.4624 234.012 91.0614 222.671C91.0614 222.671 98.5741 224.457 102.57 208.819C103.486 205.23 98.1954 204.927 91.8102 205.588C83.5745 206.437 74.2471 206.368 74.2471 206.368Z" fill="#063963"/>
<path d="M57.1053 248.119C68.2547 240.888 67.6601 244.048 80.977 245.002C106.44 239.303 118.548 248.07 125.349 272.719C120.354 277.848 114.068 280.121 114.068 280.121L112.907 327.197L85.0689 341.449L53.2971 325.494L54.4345 279.488C54.4345 279.488 44.3459 274.789 43.6058 273.081C42.8656 271.372 48.2035 254.239 57.1053 248.119Z" fill="#22B8CF"/>
<path d="M44.0744 272.875C44.0744 272.875 30.5552 310.362 61.3857 325.765C67.7919 324.919 65.3247 314.283 65.3247 314.283C65.3247 314.283 51.9276 311.322 55.9492 280.05C52.2483 277.001 44.0744 272.875 44.0744 272.875Z" fill="#FDBAB9"/>
<path d="M124.7 272.875C124.7 272.875 134.003 312.003 107.393 325.765C100.991 324.914 103.452 314.283 103.452 314.283C103.452 314.283 114.25 308.966 112.828 280.05C116.521 277.001 124.7 272.875 124.7 272.875Z" fill="#FDBAB9"/>
<path d="M111.288 287.172H55.6189C54.1351 287.172 52.9321 288.375 52.9321 289.859V325.71C52.9321 327.194 54.1351 328.397 55.6189 328.397H111.288C112.772 328.397 113.975 327.194 113.975 325.71V289.859C113.975 288.375 112.772 287.172 111.288 287.172Z" fill="#116E95"/>
<path d="M141.437 340.794C134.64 338.934 117.677 339.889 117.612 339.878C116.806 340.887 116.088 349.145 115.868 350.496C116.157 350.32 133.823 354.178 140.951 352.943C146.638 351.174 147.312 342.446 141.437 340.794Z" fill="#063963"/>
<path d="M112.977 339.379C115.26 339.429 118.035 339.367 119.551 341.482C121.324 343.579 121.568 347.305 119.481 349.287C117.856 351.235 114.218 350.23 112.099 350.204L112.977 339.379Z" fill="#FDBAB9"/>
<path d="M44.7987 341.535L44.1819 339.736C44.0906 339.76 27.2061 338.256 20.3435 339.921C14.432 341.393 14.8872 350.137 20.5261 352.081C27.5059 353.532 45.5241 350.223 45.6598 350.405L44.7987 341.535Z" fill="#063963"/>
<path opacity="0.48" d="M44.7987 341.535L44.1819 339.736C44.0906 339.76 27.2061 338.256 20.3435 339.921C14.432 341.393 14.8872 350.137 20.5261 352.081C27.5059 353.532 45.5241 350.223 45.6598 350.405L44.7987 341.535Z" fill="black"/>
<path d="M48.8348 339.382C46.5563 339.362 43.777 339.213 42.2103 341.283C40.3809 343.329 40.054 347.049 42.087 349.087C43.6598 351.081 47.32 350.197 49.443 350.23L48.8348 339.382Z" fill="#FDBAB9"/>
<path d="M142.7 312.907C139.532 305.615 131.784 304.432 125.183 307.84C125.068 307.991 83.3014 329.398 46.4668 338.779C47.7214 342.902 48.3456 347.317 48.1445 351.624C76.3943 350.173 107.046 340.752 133.387 332.474C141.561 329.839 146.212 320.988 142.7 312.907Z" fill="#063963"/>
<path opacity="0.48" d="M142.7 312.907C139.532 305.615 131.784 304.432 125.183 307.84C125.068 307.991 83.3014 329.398 46.4668 338.779C47.7214 342.902 48.3456 347.317 48.1445 351.624C76.3943 350.173 107.046 340.752 133.387 332.474C141.561 329.839 146.212 320.988 142.7 312.907Z" fill="black"/>
<path d="M113.178 349.846C113.009 345.565 114.042 341.704 115.713 337.989C88.7648 329.532 62.3136 318.01 42.171 306.852C24.2836 297.438 15.5249 325.704 33.5678 331.103C66.2081 344.402 79.4682 347.35 113.222 350.733C113.206 350.437 113.19 350.14 113.178 349.846Z" fill="#063963"/>
<path d="M67.4507 243.306C70.3596 258.404 96.8108 259.766 99.0708 243.267L89.984 241.322L89.224 231.198L75.5568 232.21L75.3039 241.832L67.4507 243.306Z" fill="#FDBAB9"/>
<path d="M78.695 204.575C60.414 236.871 95.7411 253.269 97.0105 213.56C93.8241 204.641 91.7269 205.699 91.7269 205.699L78.695 204.575Z" fill="#FDBAB9"/>
<path d="M100.176 202.254C106.68 204.042 101.121 218.147 91.33 214.811C81.5387 211.476 77.6898 211.525 76.1639 214.213C74.6379 216.901 74.3134 226.45 70.9999 221.731C67.3694 216.557 65.3463 206.171 69.7959 202.823C73.7743 199.832 74.702 195.192 79.4724 195.352C85.8046 195.566 90.6983 192.762 93.5591 194.784C96.8418 197.115 95.391 200.939 100.176 202.254Z" fill="#063963"/>
<path d="M75.5648 216.407C70.0135 210.665 72.3883 227.282 74.9912 222.787C76.6751 220.216 75.5648 216.407 75.5648 216.407Z" fill="#FDBAB9"/>
</svg>
