<svg width="24" height="24" viewBox="0 0 24 24" fill="none" xmlns="http://www.w3.org/2000/svg">
<path d="M5.25 20.832C5.05109 20.832 4.86032 20.7529 4.71967 20.6123C4.57902 20.4716 4.5 20.2809 4.5 20.082V3.58196C4.49999 3.45163 4.53395 3.32354 4.59852 3.21032C4.6631 3.09711 4.75606 3.00268 4.86825 2.93634C4.98044 2.86999 5.10798 2.83403 5.2383 2.832C5.36862 2.82997 5.49722 2.86193 5.61143 2.92474L20.6114 11.1747C20.7291 11.2395 20.8273 11.3346 20.8956 11.4502C20.964 11.5658 21 11.6976 21 11.8319C21 11.9662 20.964 12.0981 20.8956 12.2137C20.8273 12.3293 20.7291 12.4244 20.6114 12.4891L5.61143 20.7391C5.50069 20.8 5.37637 20.8319 5.25 20.832ZM6 4.85014V18.8136L18.6936 11.832L6 4.85014Z" fill="white"/>
</svg>
