<svg width="16" height="16" viewBox="0 0 16 16" fill="none" xmlns="http://www.w3.org/2000/svg">
<path d="M8.00012 10.3333C7.91239 10.3338 7.82541 10.317 7.74419 10.2838C7.66296 10.2506 7.58908 10.2017 7.52679 10.14L4.86012 7.47329C4.79796 7.41113 4.74866 7.33734 4.71502 7.25613C4.68138 7.17491 4.66406 7.08787 4.66406 6.99996C4.66406 6.91205 4.68138 6.82501 4.71502 6.74379C4.74866 6.66258 4.79796 6.58879 4.86012 6.52663C4.92228 6.46447 4.99608 6.41516 5.07729 6.38152C5.15851 6.34788 5.24555 6.33057 5.33346 6.33057C5.42136 6.33057 5.50841 6.34788 5.58962 6.38152C5.67084 6.41516 5.74463 6.46447 5.80679 6.52663L8.00012 8.73329L10.2001 6.61329C10.2615 6.5451 10.3362 6.49029 10.4197 6.4523C10.5031 6.41431 10.5936 6.39396 10.6853 6.3925C10.777 6.39105 10.868 6.40853 10.9526 6.44386C11.0373 6.47919 11.1137 6.5316 11.1771 6.59782C11.2406 6.66403 11.2897 6.74263 11.3214 6.82869C11.3531 6.91475 11.3667 7.00643 11.3613 7.09799C11.356 7.18955 11.3318 7.27901 11.2903 7.3608C11.2488 7.44258 11.1909 7.51492 11.1201 7.57329L8.45346 10.1466C8.33154 10.2642 8.16946 10.3309 8.00012 10.3333Z" fill="#212B36"/>
</svg>
