<svg width="28" height="28" viewBox="0 0 28 28" fill="none" xmlns="http://www.w3.org/2000/svg">
<path d="M20.3547 14.648C20.3437 12.7832 21.1887 11.3777 22.8949 10.3414C21.9406 8.97422 20.4969 8.22227 18.5937 8.07734C16.7918 7.93516 14.8203 9.12734 14.0984 9.12734C13.3355 9.12734 11.591 8.12656 10.2184 8.12656C7.38555 8.17031 4.375 10.3852 4.375 14.8914C4.375 16.223 4.61836 17.5984 5.10508 19.0148C5.75586 20.8797 8.10195 25.4488 10.5492 25.375C11.8289 25.3449 12.734 24.4672 14.3992 24.4672C16.0152 24.4672 16.852 25.375 18.2793 25.375C20.7484 25.3395 22.8703 21.1859 23.4883 19.3156C20.177 17.7543 20.3547 14.7437 20.3547 14.648ZM17.4809 6.3082C18.8672 4.66211 18.7414 3.16367 18.7004 2.625C17.4754 2.69609 16.059 3.45898 15.2523 4.39687C14.3637 5.40312 13.8414 6.64727 13.9535 8.05C15.277 8.15117 16.4855 7.47031 17.4809 6.3082Z" fill="white"/>
</svg>
