<svg width="571" height="492" viewBox="0 0 571 492" fill="none" xmlns="http://www.w3.org/2000/svg">
<g opacity="0.48">
<path opacity="0.48" fill-rule="evenodd" clip-rule="evenodd" d="M59.5601 385.473L63.1588 389.073L66.7691 385.463L68.3118 387.006L64.7008 390.615L68.3018 394.215L66.7549 395.762L63.1536 392.162L59.5459 395.772L58.0032 394.229L61.6116 390.62L58.0131 387.02L59.5601 385.473Z" fill="#0CD66E"/>
<path opacity="0.48" fill-rule="evenodd" clip-rule="evenodd" d="M428.693 15.0619L432.292 18.662L435.902 15.052L437.445 16.5947L433.834 20.204L437.435 23.8037L435.888 25.3507L432.286 21.7512L428.679 25.3606L427.136 23.8179L430.744 20.2092L427.146 16.6089L428.693 15.0619Z" fill="#0CD66E"/>
<path opacity="0.48" fill-rule="evenodd" clip-rule="evenodd" d="M363.065 172.87L366.664 176.47L370.274 172.86L371.817 174.402L368.206 178.012L371.807 181.611L370.26 183.158L366.659 179.559L363.051 183.168L361.508 181.626L365.117 178.017L361.518 174.417L363.065 172.87Z" fill="#DC8CFF"/>
<path opacity="0.48" fill-rule="evenodd" clip-rule="evenodd" d="M177.82 379.36L188.434 389.984C189.18 390.72 189.926 390.484 190.115 389.455L192.467 376.848C192.533 376.638 192.541 376.414 192.488 376.199C192.436 375.985 192.326 375.79 192.17 375.634C192.014 375.478 191.819 375.368 191.604 375.316C191.39 375.263 191.166 375.271 190.956 375.337L178.339 377.679C177.31 377.868 177.084 378.623 177.82 379.36Z" stroke="#DC8CFF" stroke-width="2" stroke-miterlimit="10" stroke-linecap="round" stroke-linejoin="round"/>
<path opacity="0.72" fill-rule="evenodd" clip-rule="evenodd" d="M284.024 469.513L287.681 465.856C288.234 465.304 288.985 464.993 289.767 464.993C290.55 464.993 291.3 465.304 291.854 465.856L295.511 469.513C295.787 469.787 296.005 470.113 296.155 470.471C296.304 470.83 296.381 471.215 296.381 471.604C296.381 471.992 296.304 472.377 296.155 472.736C296.005 473.095 295.787 473.42 295.511 473.694L291.854 477.351C291.3 477.904 290.55 478.214 289.767 478.214C288.985 478.214 288.234 477.904 287.681 477.351L284.024 473.694C283.748 473.42 283.529 473.095 283.38 472.736C283.231 472.377 283.154 471.992 283.154 471.604C283.154 471.215 283.231 470.83 283.38 470.471C283.529 470.113 283.748 469.787 284.024 469.513V469.513Z" stroke="#80F3DA" stroke-width="2"/>
<path fill-rule="evenodd" clip-rule="evenodd" d="M446.45 158.826L450.106 155.169C450.66 154.616 451.411 154.306 452.193 154.306C452.976 154.306 453.726 154.616 454.28 155.169L457.937 158.826C458.213 159.1 458.431 159.426 458.581 159.784C458.73 160.143 458.807 160.528 458.807 160.916C458.807 161.305 458.73 161.69 458.581 162.049C458.431 162.407 458.213 162.733 457.937 163.007L454.28 166.664C453.726 167.216 452.976 167.527 452.193 167.527C451.411 167.527 450.66 167.216 450.106 166.664L446.45 163.007C446.174 162.733 445.955 162.407 445.806 162.049C445.657 161.69 445.58 161.305 445.58 160.916C445.58 160.528 445.657 160.143 445.806 159.784C445.955 159.426 446.174 159.1 446.45 158.826V158.826Z" stroke="#80F3DA" stroke-width="2"/>
<path opacity="0.48" fill-rule="evenodd" clip-rule="evenodd" d="M556.503 274.309L566.098 283.904C566.834 284.64 567.58 284.414 567.779 283.385L569.894 272.024C569.958 271.814 569.965 271.591 569.912 271.377C569.859 271.164 569.749 270.969 569.593 270.814C569.438 270.658 569.243 270.548 569.03 270.495C568.817 270.442 568.593 270.449 568.383 270.513L557.022 272.629C555.993 272.817 555.757 273.573 556.503 274.309Z" stroke="#80F3DA" stroke-width="2"/>
<path fill-rule="evenodd" clip-rule="evenodd" d="M513.501 449.105L523.096 458.699C523.832 459.436 524.578 459.21 524.777 458.18L526.892 446.82C526.957 446.61 526.963 446.386 526.91 446.173C526.857 445.96 526.747 445.765 526.592 445.609C526.436 445.454 526.241 445.344 526.028 445.291C525.815 445.238 525.591 445.244 525.381 445.309L514.021 447.424C512.991 447.613 512.755 448.369 513.501 449.105Z" stroke="#FFCB81" stroke-width="2" stroke-miterlimit="10" stroke-linecap="round" stroke-linejoin="round"/>
<path fill-rule="evenodd" clip-rule="evenodd" d="M13.5104 344.269C13.5104 345.203 13.2335 346.116 12.7146 346.892C12.1958 347.669 11.4584 348.274 10.5956 348.632C9.73283 348.989 8.78347 349.082 7.86755 348.9C6.95163 348.718 6.1103 348.268 5.44996 347.608C4.78962 346.948 4.33993 346.106 4.15774 345.191C3.97555 344.275 4.06905 343.325 4.42643 342.462C4.7838 341.599 5.38899 340.862 6.16547 340.343C6.94195 339.825 7.85484 339.548 8.7887 339.548C10.041 339.548 11.242 340.045 12.1274 340.93C13.0129 341.816 13.5104 343.017 13.5104 344.269Z" stroke="#50D1FF" stroke-width="2" stroke-miterlimit="10" stroke-linecap="round" stroke-linejoin="round"/>
<path fill-rule="evenodd" clip-rule="evenodd" d="M288.023 26.9717C288.023 27.9056 287.746 28.8185 287.227 29.5949C286.708 30.3714 285.971 30.9768 285.108 31.3342C284.245 31.6916 283.296 31.7848 282.38 31.6026C281.464 31.4204 280.623 30.9709 279.963 30.3106C279.302 29.6502 278.853 28.8089 278.67 27.893C278.488 26.9771 278.582 26.0274 278.939 25.1647C279.296 24.3019 279.902 23.5647 280.678 23.0459C281.455 22.5271 282.367 22.25 283.301 22.25C284.554 22.25 285.755 22.7474 286.64 23.6329C287.526 24.5184 288.023 25.7194 288.023 26.9717Z" stroke="#50D1FF" stroke-width="2" stroke-miterlimit="10" stroke-linecap="round" stroke-linejoin="round"/>
<path opacity="0.72" d="M264.713 351.673C267.582 351.673 269.907 349.347 269.907 346.479C269.907 343.61 267.582 341.285 264.713 341.285C261.845 341.285 259.519 343.61 259.519 346.479C259.519 349.347 261.845 351.673 264.713 351.673Z" stroke="#FF7777" stroke-width="2"/>
</g>
</svg>
